<svg version="1.1" id="Layer_1" xmlns="http://www.w3.org/2000/svg" xmlns:xlink="http://www.w3.org/1999/xlink" x="0px" y="0px"
	 width="100%" viewBox="0 0 500 500" enable-background="new 0 0 500 500" xml:space="preserve">
<path fill="#FFFFFF" opacity="1.000000" stroke="none" 
	d="
M242.000000,501.000000 
	C161.333359,501.000000 81.166702,501.000000 1.000043,501.000000 
	C1.000029,334.333405 1.000029,167.666779 1.000014,1.000133 
	C167.666565,1.000088 334.333130,1.000088 500.999756,1.000044 
	C500.999847,167.666519 500.999847,334.333038 500.999939,500.999786 
	C414.833344,501.000000 328.666656,501.000000 242.000000,501.000000 
M390.407654,301.493591 
	C391.586945,299.286804 392.766235,297.080048 394.050934,294.170410 
	C394.047485,293.267517 394.044067,292.364594 393.965454,291.402130 
	C393.965454,291.402130 394.032227,291.453735 394.797546,291.541901 
	C396.996155,290.192139 399.194763,288.842377 401.393341,287.492645 
	C400.889496,287.294342 400.385620,287.096039 399.881744,286.897736 
	C399.881744,283.585754 399.357330,280.170715 399.984070,276.981903 
	C401.599854,268.760986 400.901031,260.877625 398.606506,252.860382 
	C397.305267,248.313934 394.875153,246.067856 390.392090,245.679688 
	C383.270203,245.063065 376.146332,244.468796 369.055878,243.468506 
	C369.055878,243.468506 369.029022,243.071548 368.998962,242.359879 
	C363.718903,239.564438 358.413055,236.816208 353.168793,233.955200 
	C350.204376,232.337952 347.341156,230.535233 344.048523,228.311905 
	C343.440979,228.166687 342.833405,228.021469 341.716034,227.356735 
	C339.143860,226.585754 336.571686,225.814774 333.421021,224.633041 
	C332.280914,224.374496 331.140808,224.115952 329.408356,223.341568 
	C287.521362,216.290894 247.240646,218.490280 210.137573,244.005829 
	C214.818069,244.005829 218.645294,244.005829 222.472519,244.005829 
	C226.073181,244.005829 229.673843,244.005829 233.274506,244.005829 
	C207.135239,246.434677 181.421661,250.399429 156.056854,258.053680 
	C155.917068,257.887604 155.777298,257.721527 156.161102,257.096222 
	C159.196747,255.648254 162.232376,254.200287 166.132614,252.339920 
	C148.656036,251.004608 134.531921,256.517181 130.074432,266.106323 
	C134.754089,266.892609 139.377151,267.669403 145.339859,268.671295 
	C141.833710,270.063599 138.956711,270.287323 138.144394,271.699097 
	C135.602310,276.117126 131.909515,275.682922 127.418335,275.117401 
	C127.212357,275.389465 127.006378,275.661499 126.341812,276.590332 
	C126.201340,277.574554 126.040314,278.556335 125.923561,279.543365 
	C124.664787,290.184601 125.630974,291.655640 135.615906,294.579315 
	C136.216751,294.755249 136.675186,295.417633 137.884308,296.422424 
	C134.691986,296.180725 132.414825,295.899811 130.133316,295.858429 
	C125.530205,295.774902 124.286766,297.589233 125.503693,302.040924 
	C126.494972,305.667175 129.307343,306.427063 132.395096,306.571259 
	C138.465179,306.854706 143.897095,307.844574 147.975143,313.327454 
	C149.507034,315.387054 153.183441,315.851624 156.011261,317.523102 
	C156.011261,317.523102 156.055542,318.017883 155.244965,318.180847 
	C146.133957,319.378357 137.022949,320.575897 127.308502,321.919922 
	C127.539108,322.227112 127.769722,322.534332 128.851456,323.043030 
	C136.169006,323.310638 143.498566,323.989929 150.802078,323.776733 
	C188.741470,322.669403 226.723862,322.152832 264.595764,319.856049 
	C305.118591,317.398560 345.535095,313.188751 386.578644,309.873138 
	C386.883789,309.789825 387.188934,309.706543 387.494049,309.623230 
	C387.025269,309.339874 386.556519,309.056519 386.190491,308.160431 
	C387.168945,306.873657 388.147400,305.586884 389.713562,303.971710 
	C389.800964,303.334534 389.888397,302.697388 390.407654,301.493591 
M172.429245,214.981323 
	C164.431702,216.325928 156.428940,217.641144 148.444260,219.058212 
	C147.596207,219.208710 146.288162,219.827332 146.147842,220.445435 
	C144.122986,229.365311 142.261627,238.322281 140.198151,248.037476 
	C142.864960,247.735611 143.970291,247.639221 145.066925,247.482056 
	C160.124771,245.323959 175.156250,242.955017 190.248795,241.076599 
	C198.050537,240.105591 206.241257,241.013596 211.545807,233.184479 
	C212.775101,231.370163 215.144745,230.293900 217.063721,228.986710 
	C238.414276,214.442856 262.772797,210.821442 287.736877,210.360733 
	C297.768677,210.175568 307.916199,211.555222 317.874817,213.100555 
	C337.897614,216.207581 356.907227,222.419189 374.025909,233.630844 
	C375.746826,234.757950 377.466278,235.887314 380.064789,237.591797 
	C379.888367,234.729874 379.969299,233.073853 379.661041,231.493759 
	C375.869171,212.057693 367.895966,194.537430 355.450562,179.096924 
	C352.229401,175.100601 348.798065,172.168793 342.854370,172.854736 
	C334.957123,173.766144 326.941406,173.630371 318.979431,174.005264 
	C305.883331,174.621887 292.793213,175.381042 279.693207,175.890991 
	C273.522797,176.131180 267.335297,175.932144 261.155548,175.932144 
	C261.149780,175.718399 261.144043,175.504654 261.138306,175.290909 
	C286.991974,171.349686 312.845642,167.408447 339.800873,163.299286 
	C306.937866,136.077881 270.662048,127.286819 230.801025,137.857880 
	C192.777496,147.941635 166.213272,172.339890 149.508789,209.419693 
	C175.772842,207.873154 200.848724,206.396561 225.924606,204.919983 
	C225.941711,205.139450 225.958817,205.358917 225.975922,205.578384 
	C208.418365,208.693558 190.860825,211.808716 172.429245,214.981323 
M163.251587,336.381622 
	C161.961014,336.569214 160.670441,336.756805 159.111389,336.983429 
	C160.623184,345.301147 162.094147,353.394165 163.519119,361.234253 
	C168.066071,362.350952 170.141800,360.566864 171.550720,356.895172 
	C172.967590,353.202667 175.021667,349.754669 177.368607,345.053680 
	C178.715012,351.154816 179.737366,355.787567 180.942047,361.246582 
	C183.187256,360.386688 186.048889,360.194397 186.706741,358.890350 
	C190.629852,351.113647 194.044235,343.080322 197.666412,335.051025 
	C193.284470,333.952820 191.022720,335.245575 189.706741,339.172394 
	C188.454010,342.910492 186.427368,346.389191 184.344376,350.826874 
	C183.062698,345.028992 182.029572,340.355530 181.036453,335.863037 
	C176.927704,334.803650 174.892899,336.369720 173.535034,339.874878 
	C172.128220,343.506439 170.140427,346.912964 168.114395,351.008972 
	C166.617950,345.620300 165.334167,340.997406 163.251587,336.381622 
M371.000336,331.683289 
	C367.896606,325.924957 363.357117,323.816986 356.998291,325.181183 
	C350.457214,326.584442 345.466003,332.108398 344.828400,338.650024 
	C344.052307,346.612793 348.441864,351.355286 356.419586,351.173157 
	C366.237885,350.949005 372.840240,342.580231 371.000336,331.683289 
M312.720947,349.079620 
	C314.349274,342.119873 315.977631,335.160126 317.755219,327.562500 
	C314.693542,327.852966 312.969574,328.016541 311.319733,328.173065 
	C310.466644,333.638641 309.814270,338.743896 308.830139,343.784363 
	C308.218689,346.916016 306.041809,348.801239 302.751099,348.424194 
	C299.100159,348.005890 299.689911,345.025818 299.938721,342.606750 
	C300.407349,338.050293 301.088257,333.515686 301.736816,328.543457 
	C299.556488,328.712158 297.834625,328.845367 295.842010,328.999512 
	C295.158813,334.726227 294.225494,340.137085 293.945526,345.581573 
	C293.671539,350.909576 296.905609,354.435608 302.149323,353.847748 
	C305.629425,353.457642 308.892090,351.127258 312.720947,349.079620 
M279.533600,329.745789 
	C278.278900,330.275208 276.386230,330.452820 275.869720,331.389374 
	C271.489716,339.331055 267.360474,347.411072 262.710266,356.301758 
	C265.635651,355.683655 268.970001,355.852783 269.492218,354.722595 
	C272.240234,348.775360 277.320648,351.528687 281.735138,350.456329 
	C282.172119,355.324646 284.733429,355.418488 288.385010,353.865173 
	C286.462921,346.241364 284.662720,338.862885 282.667267,331.537628 
	C282.456970,330.765656 281.097504,330.306732 279.533600,329.745789 
M139.120789,355.120361 
	C137.503448,355.120361 135.886108,355.120361 134.253006,355.120361 
	C134.523636,361.452881 137.235184,363.572144 143.858261,363.083374 
	C150.067520,362.625092 154.524628,358.792206 153.648987,354.117371 
	C153.302582,352.268097 151.641083,350.409790 150.103851,349.122040 
	C148.935989,348.143677 146.938263,348.229553 145.456253,347.531128 
	C144.072754,346.879120 142.763062,345.931183 141.715134,344.832733 
	C141.522598,344.630951 142.681229,342.349976 143.312836,342.302094 
	C145.111435,342.165527 147.021896,342.479980 148.771835,343.005096 
	C150.616852,343.558777 152.327393,344.560547 154.633865,345.611267 
	C154.264847,339.146332 152.272736,337.124359 147.322678,336.895813 
	C141.020767,336.604797 136.484192,339.474457 135.854095,344.121643 
	C135.387573,347.562408 136.670486,349.994110 139.984192,351.153381 
	C141.856857,351.808533 143.877060,352.085571 145.680893,352.875336 
	C146.574768,353.266754 147.688629,354.433319 147.686478,355.246521 
	C147.684174,356.119049 146.644562,357.497711 145.783783,357.761353 
	C143.436844,358.480133 140.739487,359.297668 139.120789,355.120361 
M211.295609,355.564056 
	C211.295609,356.660461 211.295609,357.756897 211.295609,359.046173 
	C213.259949,358.851257 214.879639,358.690552 216.596313,358.520203 
	C217.109070,355.579407 217.583069,352.860901 218.068466,350.077026 
	C221.135178,349.797699 223.905762,349.545380 226.953430,349.267792 
	C227.134201,347.581757 227.296448,346.068451 227.490265,344.260864 
	C224.410675,344.421875 221.843872,344.556061 219.228165,344.692841 
	C217.804688,334.809937 225.992401,339.643280 229.681885,337.319702 
	C229.806946,336.022003 229.945114,334.588287 230.076370,333.226227 
	C225.863297,333.226227 221.899948,333.297638 217.940689,333.201263 
	C215.268585,333.136230 214.196655,334.179657 213.919617,336.938751 
	C213.322876,342.882202 212.317184,348.784607 211.295609,355.564056 
M252.795105,331.220001 
	C246.652924,331.601501 240.510742,331.983032 234.008072,332.386932 
	C233.707581,334.061157 233.405701,335.743103 233.048294,337.734528 
	C235.871628,337.734528 238.135681,337.734528 240.781342,337.734528 
	C239.910599,344.296204 239.075317,350.590668 238.187073,357.284210 
	C240.423645,357.146301 242.156738,357.039459 243.916779,356.930939 
	C244.911789,350.147247 245.849609,343.753387 246.806976,337.226288 
	C249.572495,336.966644 252.138580,336.725739 255.777679,336.384094 
	C254.859802,334.184875 254.232376,332.681610 252.795105,331.220001 
M328.269836,352.180695 
	C330.891113,352.481537 331.962860,351.523346 332.223755,348.683533 
	C332.732788,343.142792 333.790131,337.652405 334.600616,332.272491 
	C343.032104,331.446045 343.032104,331.446045 342.440002,326.220123 
	C336.998535,326.498138 331.541687,327.020782 326.089478,326.976562 
	C321.897278,326.942596 320.368011,328.457581 321.370697,332.786011 
	C323.674927,332.786011 325.906982,332.786011 328.546143,332.786011 
	C327.787872,338.180389 326.971222,343.231201 326.439758,348.311798 
	C326.309021,349.561798 327.107849,350.909058 328.269836,352.180695 
M202.926361,359.126648 
	C203.532455,358.092804 204.514359,357.116760 204.683685,356.015778 
	C205.792465,348.807007 206.725525,341.571198 207.751419,334.085571 
	C205.834808,334.085571 204.078568,334.085571 201.977615,334.085571 
	C200.816025,342.483337 199.671799,350.755463 198.507584,359.172241 
	C200.205109,359.172241 201.192413,359.172241 202.926361,359.126648 
z"/>
<path fill="#034CAE" opacity="1.000000" stroke="none" 
	d="
M156.469559,258.559509 
	C181.421661,250.399429 207.135239,246.434677 233.274506,244.005829 
	C229.673843,244.005829 226.073181,244.005829 222.472519,244.005829 
	C218.645294,244.005829 214.818069,244.005829 210.137573,244.005829 
	C247.240646,218.490280 287.521362,216.290894 329.736145,223.971237 
	C330.916870,225.675507 331.769836,226.750122 332.622803,227.824738 
	C333.081696,226.897751 333.540588,225.970779 333.999512,225.043793 
	C336.571686,225.814774 339.143860,226.585754 341.692505,227.800354 
	C341.652863,228.971512 341.636719,229.699066 341.620544,230.426605 
	C342.557831,229.889771 343.495117,229.352921 344.432373,228.816071 
	C347.341156,230.535233 350.204376,232.337952 353.168793,233.955200 
	C358.413055,236.816208 363.718903,239.564438 368.592590,242.664185 
	C358.550232,242.490311 348.929962,241.861816 340.106079,247.183640 
	C338.694153,248.035202 336.578491,247.906403 334.787018,247.912735 
	C320.000519,247.965057 305.213623,247.966034 290.427185,247.907532 
	C288.861298,247.901337 287.297363,247.412598 286.017853,246.981461 
	C286.558075,246.226395 286.812988,245.637589 287.197571,244.974792 
	C287.203369,244.913559 287.079529,244.926300 286.657043,244.989624 
	C285.907562,245.620911 285.456726,246.201599 284.627869,246.990631 
	C282.672211,247.449615 281.097046,247.898941 279.516449,247.919128 
	C268.025024,248.065979 256.524750,247.891266 245.042282,248.271667 
	C229.522995,248.785797 214.562653,252.041687 200.431046,258.791840 
	C202.339951,258.916718 204.205460,258.736328 205.983810,258.242218 
	C222.742920,253.585526 239.768219,250.907639 257.202148,250.894318 
	C283.352203,250.874344 309.502258,250.754395 335.652039,250.620148 
	C338.131073,250.607422 340.985107,250.907730 343.019714,249.836761 
	C351.217346,245.521744 359.999725,244.290466 369.023315,243.865051 
	C376.146332,244.468796 383.270203,245.063065 390.392090,245.679688 
	C394.875153,246.067856 397.305267,248.313934 398.606506,252.860382 
	C400.901031,260.877625 401.599854,268.760986 399.984070,276.981903 
	C399.357330,280.170715 399.881744,283.585754 399.881744,286.897736 
	C400.385620,287.096039 400.889496,287.294342 401.393341,287.492645 
	C399.194763,288.842377 396.996155,290.192139 394.424438,291.026245 
	C394.051300,288.502991 394.051300,286.495392 394.051300,284.487823 
	C393.321808,284.417908 392.592285,284.347992 391.862793,284.278076 
	C391.468933,286.509277 391.075104,288.740479 390.666077,291.057495 
	C392.175934,291.238342 393.108276,291.350037 394.040649,291.461700 
	C394.044067,292.364594 394.047485,293.267517 393.700500,294.563232 
	C392.949310,294.954895 392.548523,294.953735 392.075226,294.645050 
	C391.828735,293.980347 391.654816,293.623199 391.480896,293.266022 
	C391.241241,293.787811 391.001556,294.309570 390.827057,294.837006 
	C390.892212,294.842651 390.847076,294.719879 390.542664,294.591431 
	C384.546753,286.937012 384.588867,286.238678 391.075256,282.318909 
	C391.406982,282.064941 391.650818,281.534180 392.013977,280.643280 
	C391.725616,278.862122 391.317841,277.441162 390.898438,275.660828 
	C390.272278,274.856567 389.657745,274.411591 388.920776,273.804626 
	C388.798309,273.642578 388.402039,273.553375 388.405518,273.394287 
	C388.106445,273.025818 387.821411,273.045654 387.285645,273.140045 
	C386.663391,272.774017 386.309265,272.562744 386.377319,272.529510 
	C387.307037,272.464722 387.814606,272.221863 388.322144,271.978973 
	C387.614685,271.170593 386.907196,270.362183 385.864441,269.283600 
	C380.609497,267.927002 379.432465,268.508270 379.485626,272.008789 
	C379.508636,272.008392 379.531067,272.042175 379.594055,271.552185 
	C378.697693,271.387665 377.738312,271.713135 376.538422,272.254639 
	C376.197388,273.319855 376.096863,274.169067 375.992310,275.244232 
	C375.988281,275.470154 375.975220,275.921844 375.667755,275.965332 
	C375.238129,276.731537 375.115936,277.454224 374.993774,278.386353 
	C374.993835,278.595825 374.995117,279.014771 374.726990,279.026215 
	C374.244354,280.017548 374.029846,280.997467 373.606506,282.280640 
	C373.370972,284.046021 373.344238,285.508179 373.229309,287.366791 
	C373.475250,289.747528 373.809387,291.731750 374.143524,293.716003 
	C374.513916,293.639832 374.884308,293.563629 375.254700,293.487427 
	C374.874817,291.269409 374.494904,289.051361 374.554626,286.765045 
	C381.343292,287.878998 381.444702,288.064423 379.186279,294.108551 
	C378.735565,295.314758 378.331512,296.538391 377.682770,297.742157 
	C377.213989,297.536163 377.063721,297.284943 376.976379,296.676544 
	C376.327209,295.901672 375.710388,295.426941 375.093597,294.952209 
	C374.972595,295.101532 374.851593,295.250854 374.730621,295.400177 
	C375.135376,295.858612 375.540161,296.317078 375.700195,296.901978 
	C375.776093,297.740692 376.096741,298.452911 376.570160,299.495422 
	C378.108337,301.135223 379.493774,302.444702 381.153900,303.896545 
	C383.663574,303.703400 385.898529,303.367950 388.360046,303.189941 
	C388.766357,303.665009 388.946106,303.982574 389.125854,304.300140 
	C388.147400,305.586884 387.168945,306.873657 386.111816,308.709015 
	C386.033142,309.257599 385.998016,309.743774 385.998016,309.743774 
	C345.535095,313.188751 305.118591,317.398560 264.595764,319.856049 
	C226.723862,322.152832 188.741470,322.669403 150.802078,323.776733 
	C143.498566,323.989929 136.169006,323.310638 128.411606,322.674622 
	C127.951820,322.128601 127.931877,321.950989 127.911942,321.773438 
	C137.022949,320.575897 146.133957,319.378357 155.954956,318.093445 
	C157.165237,317.881470 157.665512,317.756897 158.165802,317.632355 
	C158.142731,317.436035 158.119675,317.239716 158.096619,317.043396 
	C157.358459,317.043396 156.620300,317.043396 155.882141,317.043396 
	C153.183441,315.851624 149.507034,315.387054 147.975143,313.327454 
	C143.897095,307.844574 138.465179,306.854706 132.395096,306.571259 
	C129.307343,306.427063 126.494972,305.667175 125.503693,302.040924 
	C124.286766,297.589233 125.530205,295.774902 130.133316,295.858429 
	C132.414825,295.899811 134.691986,296.180725 137.884308,296.422424 
	C136.675186,295.417633 136.216751,294.755249 135.615906,294.579315 
	C125.630974,291.655640 124.664787,290.184601 125.923561,279.543365 
	C126.040314,278.556335 126.201340,277.574554 126.803452,276.216064 
	C127.573723,275.725067 127.809998,275.523529 127.973900,275.237152 
	C131.909515,275.682922 135.602310,276.117126 138.144394,271.699097 
	C138.956711,270.287323 141.833710,270.063599 145.339859,268.671295 
	C139.377151,267.669403 134.754089,266.892609 130.074432,266.106323 
	C134.531921,256.517181 148.656036,251.004608 166.132614,252.339920 
	C162.232376,254.200287 159.196747,255.648254 155.613617,257.402527 
	C154.589493,258.023285 154.112839,258.337738 153.377579,258.704041 
	C152.785080,258.851379 152.451187,258.946838 151.853134,259.046143 
	C151.343094,259.164795 151.097214,259.279572 150.851318,259.394348 
	C151.282852,259.578491 151.714386,259.762634 152.432495,259.916412 
	C153.178802,259.628754 153.638565,259.371429 154.409576,259.152771 
	C155.303757,258.980774 155.886658,258.770142 156.469559,258.559509 
M287.881866,310.100403 
	C289.925964,310.100403 291.970062,310.100403 294.014160,310.100403 
	C293.983978,309.527924 293.953796,308.955444 293.923645,308.382965 
	C291.632294,308.653839 289.340973,308.924744 286.496063,309.055298 
	C286.122192,309.342804 285.748352,309.630341 285.374481,309.917847 
	C285.914459,309.924561 286.454437,309.931305 287.881866,310.100403 
M294.290375,236.046097 
	C293.212280,236.974670 292.134186,237.903244 291.056091,238.831818 
	C291.490356,239.212524 291.924591,239.593231 292.358856,239.973938 
	C293.258789,238.663635 294.158722,237.353333 295.319153,235.899231 
	C295.199646,235.915192 295.080170,235.931152 294.290375,236.046097 
M205.113815,279.890137 
	C201.038864,280.037842 196.963928,280.185577 192.004364,280.258759 
	C174.542984,280.258759 157.081604,280.258759 139.620209,280.258759 
	C139.607040,281.082214 139.593872,281.905670 139.580704,282.729126 
	C150.917084,283.047913 162.254745,283.635590 173.589340,283.581360 
	C180.044846,283.550507 186.495316,282.471344 193.837723,282.007538 
	C197.880386,281.667664 201.923065,281.327759 206.843918,280.996552 
	C209.612900,280.772278 212.381882,280.548004 215.150848,280.323761 
	C215.088882,279.776642 215.026917,279.229523 214.964951,278.682404 
	C211.992996,279.088135 209.021027,279.493896 205.113815,279.890137 
M152.230621,298.905884 
	C147.560684,297.726471 142.890762,296.547058 138.220825,295.367645 
	C138.103302,295.910187 137.985779,296.452759 137.868271,296.995331 
	C142.895279,298.203918 147.922287,299.412537 153.573029,300.977448 
	C157.723907,300.917725 161.874771,300.858002 166.944290,300.756561 
	C180.267258,299.137878 193.590240,297.519226 207.850113,296.000702 
	C212.856674,295.832397 217.863235,295.664124 222.869797,295.495819 
	C222.850281,295.122620 222.830780,294.749420 222.811279,294.376221 
	C217.453888,294.376221 212.096512,294.376221 205.927948,294.361694 
	C192.627213,295.955353 179.326492,297.549011 165.184799,299.084290 
	C161.108810,299.099609 157.032837,299.114960 152.230621,298.905884 
M389.344452,259.492401 
	C390.584137,260.314545 391.823792,261.136688 393.063477,261.958832 
	C393.376892,261.412659 393.690308,260.866516 394.003754,260.320343 
	C392.403473,259.546356 390.803223,258.772369 388.955139,257.327148 
	C383.701935,253.077362 379.113312,252.161819 374.406860,255.109711 
	C367.958435,259.148712 365.549774,265.766449 363.753448,272.630646 
	C366.937317,269.032410 369.534393,264.995087 372.770203,261.559387 
	C377.558136,256.475708 382.658905,255.888824 389.344452,259.492401 
M247.534210,278.175690 
	C242.744736,288.024017 242.924652,297.897766 248.302155,307.320374 
	C253.899384,317.127960 264.525482,316.854675 269.909485,306.885437 
	C274.726807,297.965424 274.682800,288.579376 270.662079,279.459351 
	C265.405365,267.535614 255.421356,266.811310 247.534210,278.175690 
M221.946182,273.605713 
	C230.209793,270.068054 238.473404,266.530396 246.737015,262.992737 
	C246.615662,262.674194 246.494308,262.355652 246.372940,262.037109 
	C223.468475,264.141602 200.564011,266.246063 176.722900,268.436615 
	C178.105057,269.186676 178.833603,269.935089 179.355713,269.811462 
	C185.398102,268.381042 190.386292,270.257202 194.907959,274.238953 
	C195.918228,275.128571 197.564575,275.853851 198.860245,275.769226 
	C206.309784,275.282715 213.741898,274.529694 221.946182,273.605713 
M362.503052,308.327759 
	C363.531860,308.196259 364.560669,308.064758 366.039215,307.875793 
	C364.351105,306.410889 362.621277,305.580170 361.981293,304.232086 
	C359.838287,299.717712 356.162689,299.403717 352.017151,299.997406 
	C333.636047,302.629944 315.256866,305.275970 296.883942,307.964569 
	C296.318481,308.047333 295.829224,308.650879 294.376251,309.649719 
	C317.620392,309.206909 339.642090,308.787354 362.503052,308.327759 
M310.652924,261.229950 
	C297.395447,262.067200 284.137970,262.904480 270.440369,263.769562 
	C272.260895,267.065826 273.761810,269.783417 275.402557,272.754181 
	C297.070892,268.754150 318.721466,264.757416 340.372009,260.760712 
	C340.336426,260.417572 340.300812,260.074463 340.265228,259.731354 
	C330.711578,260.212280 321.157959,260.693237 310.652924,261.229950 
M198.342560,314.708313 
	C209.101532,314.072540 219.860489,313.436768 230.619446,312.801025 
	C230.746140,312.404877 230.872833,312.008759 230.999527,311.612640 
	C229.417984,311.058075 227.851562,310.074066 226.252441,310.017700 
	C214.638275,309.608093 203.017227,309.395752 191.398926,309.099243 
	C186.006744,308.961639 180.426163,307.977509 176.737808,313.626068 
	C176.093506,314.612823 174.509872,314.986267 173.340424,315.654144 
	C173.604797,315.955109 173.720886,316.193909 173.822800,316.187988 
	C181.686386,315.732239 189.548874,315.257294 198.342560,314.708313 
M147.824203,269.102417 
	C149.440262,269.829376 151.056320,270.556305 152.672379,271.283264 
	C152.844528,270.636597 153.016678,269.989960 153.188828,269.343292 
	C151.385361,269.044983 149.581879,268.746643 147.824203,269.102417 
M134.989853,279.182281 
	C133.922638,279.182281 132.855408,279.182281 131.788193,279.182281 
	C131.704666,279.503265 131.621155,279.824249 131.537628,280.145233 
	C133.041840,280.771606 134.546051,281.398010 137.140167,282.478271 
	C136.161560,280.664581 135.858536,280.102966 134.989853,279.182281 
M138.399658,291.991943 
	C139.125168,291.700287 139.850677,291.408600 140.576187,291.116943 
	C140.500763,290.826080 140.425339,290.535248 140.349930,290.244385 
	C138.732224,290.382355 137.114532,290.520294 135.496841,290.658234 
	C135.496964,290.973633 135.497101,291.289001 135.497223,291.604401 
	C136.229965,291.734894 136.962708,291.865387 138.399658,291.991943 
M170.839859,270.456635 
	C170.858521,269.713989 170.877182,268.971375 170.895844,268.228729 
	C169.892120,268.923309 168.888397,269.617889 167.884674,270.312469 
	C168.047241,270.544525 168.209808,270.776581 168.372360,271.008606 
	C169.001602,270.932587 169.630829,270.856567 170.839859,270.456635 
M148.256668,260.507721 
	C146.916138,261.197784 145.575623,261.887878 144.235107,262.577942 
	C144.529587,262.986816 144.824066,263.395721 145.118546,263.804596 
	C146.359833,262.747559 147.601105,261.690491 148.256668,260.507721 
M193.213104,292.721191 
	C193.309113,292.591858 193.446136,292.474518 193.488678,292.329529 
	C193.525589,292.203613 193.469162,291.924805 193.430786,291.920471 
	C191.903381,291.749176 190.373291,291.601501 188.843567,291.450745 
	C188.797150,291.870667 188.750732,292.290588 188.704315,292.710510 
	C190.012085,292.785645 191.319870,292.860748 193.213104,292.721191 
M299.072510,231.251724 
	C298.445740,231.719772 297.819000,232.187836 297.192230,232.655884 
	C297.481659,232.970627 297.771057,233.285355 298.060486,233.600082 
	C298.559906,232.959656 299.059357,232.319214 299.072510,231.251724 
M132.526382,290.299072 
	C131.724014,289.847870 130.921646,289.396667 130.119278,288.945435 
	C129.966217,289.329773 129.813156,289.714081 129.660095,290.098389 
	C130.471313,290.312531 131.282547,290.526672 132.526382,290.299072 
M318.395966,291.011017 
	C319.227753,291.389435 320.059540,291.767853 320.891327,292.146271 
	C320.994385,291.876740 321.097443,291.607208 321.200531,291.337677 
	C320.389648,291.098328 319.578766,290.858948 318.395966,291.011017 
M310.028717,226.216217 
	C310.145691,225.669937 310.262665,225.123672 310.379639,224.577408 
	C310.089905,224.582413 309.550842,224.562897 309.547546,224.596069 
	C309.491791,225.163162 309.502380,225.736786 310.028717,226.216217 
M345.971100,232.467529 
	C346.404236,232.444489 346.837402,232.421432 347.270538,232.398392 
	C346.694214,231.962631 346.117920,231.526886 345.541626,231.091125 
	C345.524780,231.461182 345.507965,231.831253 345.971100,232.467529 
M301.114380,229.833511 
	C301.214417,229.965347 301.294342,230.174255 301.420197,230.207123 
	C301.543915,230.239426 301.832642,230.109528 301.844879,230.022141 
	C301.922913,229.466125 301.944519,228.902176 301.984680,228.340851 
	C301.684143,228.673111 301.383636,229.005371 301.114380,229.833511 
M311.833099,292.884033 
	C311.964630,292.784332 312.173004,292.704742 312.205841,292.579224 
	C312.238068,292.455963 312.108459,292.168030 312.021332,292.155823 
	C311.466736,292.078003 310.904236,292.056458 310.344330,292.016418 
	C310.675751,292.316101 311.007202,292.615753 311.833099,292.884033 
M339.204346,288.611298 
	C339.208588,288.215210 339.212860,287.819122 339.217102,287.423004 
	C339.052765,287.421600 338.745636,287.409149 338.744781,287.420380 
	C338.714264,287.814423 338.712555,288.210693 339.204346,288.611298 
M336.472992,288.606842 
	C336.181763,288.877106 335.890533,289.147369 335.599304,289.417633 
	C335.703613,289.520538 335.888458,289.721771 335.900421,289.711975 
	C336.193848,289.471680 336.468903,289.208954 336.472992,288.606842 
M197.468369,261.241577 
	C197.596619,260.849518 197.746002,260.462128 197.835144,260.061371 
	C197.852829,259.981934 197.639282,259.851074 197.532364,259.743927 
	C197.404327,260.135986 197.276291,260.528015 197.468369,261.241577 
M363.468506,276.242584 
	C363.596558,275.851379 363.745728,275.464844 363.834747,275.064941 
	C363.852356,274.985748 363.639069,274.855164 363.532227,274.748291 
	C363.404327,275.139496 363.276428,275.530701 363.468506,276.242584 
M194.002899,261.713348 
	C193.768585,261.787689 193.534271,261.862030 193.299942,261.936340 
	C193.564056,262.197327 193.828186,262.458313 194.092331,262.719299 
	C194.164734,262.484680 194.237137,262.250061 194.002899,261.713348 
M345.478577,288.076752 
	C345.233887,288.222534 344.989197,288.368347 344.744537,288.514160 
	C344.996796,288.649261 345.314026,288.946655 345.484741,288.878235 
	C345.696686,288.793365 345.787262,288.405731 345.478577,288.076752 
M304.176239,227.027267 
	C304.271912,227.434631 304.367584,227.841980 304.463287,228.249359 
	C304.584381,228.160019 304.817841,228.055130 304.808014,227.983871 
	C304.750793,227.570282 304.636353,227.164581 304.176239,227.027267 
M306.176849,226.027832 
	C306.272491,226.435181 306.368134,226.842514 306.463776,227.249878 
	C306.584808,227.160492 306.818207,227.055588 306.808380,226.984283 
	C306.751190,226.570770 306.636780,226.165192 306.176849,226.027832 
M210.756668,291.468475 
	C211.148285,291.596680 211.535187,291.745972 211.935486,291.835144 
	C212.014709,291.852814 212.145447,291.639221 212.252426,291.532288 
	C211.860825,291.404236 211.469238,291.276215 210.756668,291.468475 
M328.026886,290.823853 
	C328.434631,290.727966 328.842407,290.632080 329.250153,290.536163 
	C329.160675,290.414917 329.055634,290.181122 328.984314,290.191010 
	C328.570374,290.248352 328.164368,290.363068 328.026886,290.823853 
M323.626160,224.475098 
	C323.839508,224.529800 324.052826,224.584518 324.266174,224.639221 
	C324.129059,224.504623 323.991913,224.370041 323.626160,224.475098 
M280.755524,309.824463 
	C280.588165,309.879913 280.420807,309.935364 280.253448,309.990845 
	C280.421814,310.044983 280.590210,310.099121 280.755524,309.824463 
M332.474792,289.374390 
	C332.529602,289.160736 332.584381,288.947052 332.639191,288.733398 
	C332.504333,288.870728 332.369446,289.008087 332.474792,289.374390 
M203.244446,291.175415 
	C203.411667,291.119934 203.578888,291.064484 203.746109,291.008972 
	C203.577835,290.954895 203.409576,290.900848 203.244446,291.175415 
M289.588501,241.516983 
	C289.588501,241.516983 289.476929,241.583801 289.588501,241.516983 
M199.409622,260.481812 
	C199.409622,260.481812 199.523361,260.412994 199.409622,260.481812 
z"/>
<path fill="#D9D9D9" opacity="1.000000" stroke="none" 
	d="
M172.866257,214.952606 
	C190.860825,211.808716 208.418365,208.693558 225.975922,205.578384 
	C225.958817,205.358917 225.941711,205.139450 225.924606,204.919983 
	C200.848724,206.396561 175.772842,207.873154 149.508789,209.419693 
	C166.213272,172.339890 192.777496,147.941635 230.801025,137.857880 
	C270.662048,127.286819 306.937866,136.077881 339.800873,163.299286 
	C312.845642,167.408447 286.991974,171.349686 261.138306,175.290909 
	C261.144043,175.504654 261.149780,175.718399 261.155548,175.932144 
	C267.335297,175.932144 273.522797,176.131180 279.693207,175.890991 
	C292.793213,175.381042 305.883331,174.621887 318.979431,174.005264 
	C326.941406,173.630371 334.957123,173.766144 342.854370,172.854736 
	C348.798065,172.168793 352.229401,175.100601 355.450562,179.096924 
	C367.895966,194.537430 375.869171,212.057693 379.661041,231.493759 
	C379.969299,233.073853 379.888367,234.729874 380.064789,237.591797 
	C377.466278,235.887314 375.746826,234.757950 374.025909,233.630844 
	C356.907227,222.419189 337.897614,216.207581 317.874817,213.100555 
	C307.916199,211.555222 297.768677,210.175568 287.736877,210.360733 
	C262.772797,210.821442 238.414276,214.442856 217.063721,228.986710 
	C215.144745,230.293900 212.775101,231.370163 211.545807,233.184479 
	C206.241257,241.013596 198.050537,240.105591 190.248795,241.076599 
	C175.156250,242.955017 160.124771,245.323959 145.066925,247.482056 
	C143.970291,247.639221 142.864960,247.735611 140.198151,248.037476 
	C142.261627,238.322281 144.122986,229.365311 146.147842,220.445435 
	C146.288162,219.827332 147.596207,219.208710 148.444260,219.058212 
	C156.428940,217.641144 164.431702,216.325928 172.866257,214.952606 
z"/>
<path fill="#0D0D0D" opacity="1.000000" stroke="none" 
	d="
M163.650986,336.378052 
	C165.334167,340.997406 166.617950,345.620300 168.114395,351.008972 
	C170.140427,346.912964 172.128220,343.506439 173.535034,339.874878 
	C174.892899,336.369720 176.927704,334.803650 181.036453,335.863037 
	C182.029572,340.355530 183.062698,345.028992 184.344376,350.826874 
	C186.427368,346.389191 188.454010,342.910492 189.706741,339.172394 
	C191.022720,335.245575 193.284470,333.952820 197.666412,335.051025 
	C194.044235,343.080322 190.629852,351.113647 186.706741,358.890350 
	C186.048889,360.194397 183.187256,360.386688 180.942047,361.246582 
	C179.737366,355.787567 178.715012,351.154816 177.368607,345.053680 
	C175.021667,349.754669 172.967590,353.202667 171.550720,356.895172 
	C170.141800,360.566864 168.066071,362.350952 163.519119,361.234253 
	C162.094147,353.394165 160.623184,345.301147 159.111389,336.983429 
	C160.670441,336.756805 161.961014,336.569214 163.650986,336.378052 
z"/>
<path fill="#DEE8F4" opacity="1.000000" stroke="none" 
	d="
M369.039612,243.666779 
	C359.999725,244.290466 351.217346,245.521744 343.019714,249.836761 
	C340.985107,250.907730 338.131073,250.607422 335.652039,250.620148 
	C309.502258,250.754395 283.352203,250.874344 257.202148,250.894318 
	C239.768219,250.907639 222.742920,253.585526 205.983810,258.242218 
	C204.205460,258.736328 202.339951,258.916718 200.431046,258.791840 
	C214.562653,252.041687 229.522995,248.785797 245.042282,248.271667 
	C256.524750,247.891266 268.025024,248.065979 279.516449,247.919128 
	C281.097046,247.898941 282.672211,247.449615 284.776794,247.147171 
	C285.303680,247.095367 285.732513,247.147705 285.732513,247.147705 
	C287.297363,247.412598 288.861298,247.901337 290.427185,247.907532 
	C305.213623,247.966034 320.000519,247.965057 334.787018,247.912735 
	C336.578491,247.906403 338.694153,248.035202 340.106079,247.183640 
	C348.929962,241.861816 358.550232,242.490311 368.607605,243.020020 
	C369.029022,243.071548 369.055878,243.468506 369.039612,243.666779 
z"/>
<path fill="#0B0B0B" opacity="1.000000" stroke="none" 
	d="
M371.098328,332.063110 
	C372.840240,342.580231 366.237885,350.949005 356.419586,351.173157 
	C348.441864,351.355286 344.052307,346.612793 344.828400,338.650024 
	C345.466003,332.108398 350.457214,326.584442 356.998291,325.181183 
	C363.357117,323.816986 367.896606,325.924957 371.098328,332.063110 
M351.284210,335.981354 
	C349.691132,343.307159 352.912292,347.325470 358.880463,345.377228 
	C363.087311,344.003998 365.756439,340.931152 365.635071,336.604187 
	C365.579590,334.624207 363.801971,331.790771 362.037476,330.943298 
	C358.038940,329.022949 354.769470,331.276428 352.225922,334.516846 
	C352.022369,334.776154 351.866425,335.072784 351.284210,335.981354 
z"/>
<path fill="#0B0B0B" opacity="1.000000" stroke="none" 
	d="
M312.486511,349.372498 
	C308.892090,351.127258 305.629425,353.457642 302.149323,353.847748 
	C296.905609,354.435608 293.671539,350.909576 293.945526,345.581573 
	C294.225494,340.137085 295.158813,334.726227 295.842010,328.999512 
	C297.834625,328.845367 299.556488,328.712158 301.736816,328.543457 
	C301.088257,333.515686 300.407349,338.050293 299.938721,342.606750 
	C299.689911,345.025818 299.100159,348.005890 302.751099,348.424194 
	C306.041809,348.801239 308.218689,346.916016 308.830139,343.784363 
	C309.814270,338.743896 310.466644,333.638641 311.319733,328.173065 
	C312.969574,328.016541 314.693542,327.852966 317.755219,327.562500 
	C315.977631,335.160126 314.349274,342.119873 312.486511,349.372498 
z"/>
<path fill="#0D0D0D" opacity="1.000000" stroke="none" 
	d="
M279.902405,329.724182 
	C281.097504,330.306732 282.456970,330.765656 282.667267,331.537628 
	C284.662720,338.862885 286.462921,346.241364 288.385010,353.865173 
	C284.733429,355.418488 282.172119,355.324646 281.735138,350.456329 
	C277.320648,351.528687 272.240234,348.775360 269.492218,354.722595 
	C268.970001,355.852783 265.635651,355.683655 262.710266,356.301758 
	C267.360474,347.411072 271.489716,339.331055 275.869720,331.389374 
	C276.386230,330.452820 278.278900,330.275208 279.902405,329.724182 
M278.131653,346.109100 
	C278.939026,346.014557 279.746399,345.920013 280.828644,345.793304 
	C280.141479,343.013916 279.492889,340.390533 278.622009,336.868011 
	C276.888580,340.360168 275.566071,343.024567 274.016571,346.146149 
	C275.638275,346.146149 276.448486,346.146149 278.131653,346.109100 
z"/>
<path fill="#0F0F0F" opacity="1.000000" stroke="none" 
	d="
M139.445831,355.398071 
	C140.739487,359.297668 143.436844,358.480133 145.783783,357.761353 
	C146.644562,357.497711 147.684174,356.119049 147.686478,355.246521 
	C147.688629,354.433319 146.574768,353.266754 145.680893,352.875336 
	C143.877060,352.085571 141.856857,351.808533 139.984192,351.153381 
	C136.670486,349.994110 135.387573,347.562408 135.854095,344.121643 
	C136.484192,339.474457 141.020767,336.604797 147.322678,336.895813 
	C152.272736,337.124359 154.264847,339.146332 154.633865,345.611267 
	C152.327393,344.560547 150.616852,343.558777 148.771835,343.005096 
	C147.021896,342.479980 145.111435,342.165527 143.312836,342.302094 
	C142.681229,342.349976 141.522598,344.630951 141.715134,344.832733 
	C142.763062,345.931183 144.072754,346.879120 145.456253,347.531128 
	C146.938263,348.229553 148.935989,348.143677 150.103851,349.122040 
	C151.641083,350.409790 153.302582,352.268097 153.648987,354.117371 
	C154.524628,358.792206 150.067520,362.625092 143.858261,363.083374 
	C137.235184,363.572144 134.523636,361.452881 134.253006,355.120361 
	C135.886108,355.120361 137.503448,355.120361 139.445831,355.398071 
z"/>
<path fill="#0D0D0D" opacity="1.000000" stroke="none" 
	d="
M211.387238,355.133911 
	C212.317184,348.784607 213.322876,342.882202 213.919617,336.938751 
	C214.196655,334.179657 215.268585,333.136230 217.940689,333.201263 
	C221.899948,333.297638 225.863297,333.226227 230.076370,333.226227 
	C229.945114,334.588287 229.806946,336.022003 229.681885,337.319702 
	C225.992401,339.643280 217.804688,334.809937 219.228165,344.692841 
	C221.843872,344.556061 224.410675,344.421875 227.490265,344.260864 
	C227.296448,346.068451 227.134201,347.581757 226.953430,349.267792 
	C223.905762,349.545380 221.135178,349.797699 218.068466,350.077026 
	C217.583069,352.860901 217.109070,355.579407 216.596313,358.520203 
	C214.879639,358.690552 213.259949,358.851257 211.295609,359.046173 
	C211.295609,357.756897 211.295609,356.660461 211.387238,355.133911 
z"/>
<path fill="#0D0D0D" opacity="1.000000" stroke="none" 
	d="
M253.200043,331.199158 
	C254.232376,332.681610 254.859802,334.184875 255.777679,336.384094 
	C252.138580,336.725739 249.572495,336.966644 246.806976,337.226288 
	C245.849609,343.753387 244.911789,350.147247 243.916779,356.930939 
	C242.156738,357.039459 240.423645,357.146301 238.187073,357.284210 
	C239.075317,350.590668 239.910599,344.296204 240.781342,337.734528 
	C238.135681,337.734528 235.871628,337.734528 233.048294,337.734528 
	C233.405701,335.743103 233.707581,334.061157 234.008072,332.386932 
	C240.510742,331.983032 246.652924,331.601501 253.200043,331.199158 
z"/>
<path fill="#0F0F0F" opacity="1.000000" stroke="none" 
	d="
M327.874603,352.196167 
	C327.107849,350.909058 326.309021,349.561798 326.439758,348.311798 
	C326.971222,343.231201 327.787872,338.180389 328.546143,332.786011 
	C325.906982,332.786011 323.674927,332.786011 321.370697,332.786011 
	C320.368011,328.457581 321.897278,326.942596 326.089478,326.976562 
	C331.541687,327.020782 336.998535,326.498138 342.440002,326.220123 
	C343.032104,331.446045 343.032104,331.446045 334.600616,332.272491 
	C333.790131,337.652405 332.732788,343.142792 332.223755,348.683533 
	C331.962860,351.523346 330.891113,352.481537 327.874603,352.196167 
z"/>
<path fill="#0B0B0B" opacity="1.000000" stroke="none" 
	d="
M202.553040,359.149445 
	C201.192413,359.172241 200.205109,359.172241 198.507584,359.172241 
	C199.671799,350.755463 200.816025,342.483337 201.977615,334.085571 
	C204.078568,334.085571 205.834808,334.085571 207.751419,334.085571 
	C206.725525,341.571198 205.792465,348.807007 204.683685,356.015778 
	C204.514359,357.116760 203.532455,358.092804 202.553040,359.149445 
z"/>
<path fill="#ECF1F9" opacity="1.000000" stroke="none" 
	d="
M392.147766,294.952576 
	C392.548523,294.953735 392.949310,294.954895 393.647827,294.914673 
	C392.766235,297.080048 391.586945,299.286804 389.899780,301.773499 
	C389.007172,302.111969 388.622437,302.170563 387.988525,301.976929 
	C387.573944,301.556000 387.408447,301.387268 387.400330,301.012543 
	C387.920471,300.219543 388.283142,299.632507 389.043549,298.984375 
	C389.909882,297.522156 390.378479,296.121002 390.847076,294.719879 
	C390.847076,294.719879 390.892212,294.842651 391.172058,294.889130 
	C391.683868,294.941254 391.915833,294.946930 392.147766,294.952576 
z"/>
<path fill="#044DAE" opacity="1.000000" stroke="none" 
	d="
M333.710266,224.838409 
	C333.540588,225.970779 333.081696,226.897751 332.622803,227.824738 
	C331.769836,226.750122 330.916870,225.675507 330.032288,224.229156 
	C331.140808,224.115952 332.280914,224.374496 333.710266,224.838409 
M332.587219,226.516647 
	C332.587219,226.516647 332.476685,226.582657 332.587219,226.516647 
z"/>
<path fill="#044DAE" opacity="1.000000" stroke="none" 
	d="
M344.240448,228.563995 
	C343.495117,229.352921 342.557831,229.889771 341.620544,230.426605 
	C341.636719,229.699066 341.652863,228.971512 341.947449,228.060104 
	C342.833405,228.021469 343.440979,228.166687 344.240448,228.563995 
z"/>
<path fill="#044DAE" opacity="1.000000" stroke="none" 
	d="
M388.237671,302.229156 
	C388.622437,302.170563 389.007172,302.111969 389.683868,302.056793 
	C389.888397,302.697388 389.800964,303.334534 389.419708,304.135925 
	C388.946106,303.982574 388.766357,303.665009 388.385315,302.989014 
	C388.184082,302.630615 388.237671,302.229156 388.237671,302.229156 
z"/>
<path fill="#044DAE" opacity="1.000000" stroke="none" 
	d="
M155.946701,317.283264 
	C156.620300,317.043396 157.358459,317.043396 158.096619,317.043396 
	C158.119675,317.239716 158.142731,317.436035 158.165802,317.632355 
	C157.665512,317.756897 157.165237,317.881470 156.360260,318.011963 
	C156.055542,318.017883 156.011261,317.523102 155.946701,317.283264 
z"/>
<path fill="#044DAE" opacity="1.000000" stroke="none" 
	d="
M386.288330,309.808472 
	C385.998016,309.743774 386.033142,309.257599 386.060425,309.015381 
	C386.556519,309.056519 387.025269,309.339874 387.494049,309.623230 
	C387.188934,309.706543 386.883789,309.789825 386.288330,309.808472 
z"/>
<path fill="#044DAE" opacity="1.000000" stroke="none" 
	d="
M127.610222,321.846680 
	C127.931877,321.950989 127.951820,322.128601 127.986053,322.573853 
	C127.769722,322.534332 127.539108,322.227112 127.610222,321.846680 
z"/>
<path fill="#044DAE" opacity="1.000000" stroke="none" 
	d="
M127.696121,275.177277 
	C127.809998,275.523529 127.573723,275.725067 127.032745,275.887665 
	C127.006378,275.661499 127.212357,275.389465 127.696121,275.177277 
z"/>
<path fill="#EFF4FA" opacity="1.000000" stroke="none" 
	d="
M247.711288,277.847809 
	C255.421356,266.811310 265.405365,267.535614 270.662079,279.459351 
	C274.682800,288.579376 274.726807,297.965424 269.909485,306.885437 
	C264.525482,316.854675 253.899384,317.127960 248.302155,307.320374 
	C242.924652,297.897766 242.744736,288.024017 247.711288,277.847809 
M261.046112,301.541595 
	C260.374634,300.706055 259.703125,299.870544 258.571533,298.462524 
	C256.566284,302.542908 254.851120,306.032990 253.157867,309.478485 
	C257.849426,313.142395 260.570892,313.040161 265.096619,309.013031 
	C263.879944,306.774292 262.630737,304.475739 261.046112,301.541595 
M252.731857,286.071869 
	C253.894333,286.487793 255.056793,286.903717 256.436920,287.397552 
	C256.436920,282.378845 256.436920,277.893921 256.436920,272.977844 
	C251.791641,274.846710 248.991745,277.836151 248.198029,282.100708 
	C248.021149,283.051025 250.653427,284.524170 252.731857,286.071869 
M254.929932,295.348663 
	C252.329529,293.295807 249.729126,291.242950 247.128723,289.190063 
	C246.570724,289.603882 246.012711,290.017670 245.454697,290.431488 
	C246.499969,295.206665 247.545258,299.981842 248.590530,304.757019 
	C249.038391,304.734528 249.486252,304.712067 249.934113,304.689575 
	C251.533447,301.818542 253.132767,298.947479 254.929932,295.348663 
M267.254089,302.988159 
	C267.661652,303.497040 268.069214,304.005890 269.401123,305.668884 
	C270.300629,299.523590 271.039001,294.478973 271.853302,288.915833 
	C261.774811,292.079376 261.306763,293.194031 265.918701,300.644196 
	C266.268738,301.209625 266.596954,301.788513 267.254089,302.988159 
M264.701050,275.487427 
	C263.613922,274.921448 262.526794,274.355469 261.442322,273.790863 
	C261.442322,278.729156 261.442322,283.191406 261.442322,288.371460 
	C264.527222,286.101013 266.888977,284.362793 269.680298,282.308411 
	C268.065765,280.034363 266.650421,278.040894 264.701050,275.487427 
z"/>
<path fill="#F3F7FB" opacity="1.000000" stroke="none" 
	d="
M221.563049,273.736389 
	C213.741898,274.529694 206.309784,275.282715 198.860245,275.769226 
	C197.564575,275.853851 195.918228,275.128571 194.907959,274.238953 
	C190.386292,270.257202 185.398102,268.381042 179.355713,269.811462 
	C178.833603,269.935089 178.105057,269.186676 176.722900,268.436615 
	C200.564011,266.246063 223.468475,264.141602 246.372940,262.037109 
	C246.494308,262.355652 246.615662,262.674194 246.737015,262.992737 
	C238.473404,266.530396 230.209793,270.068054 221.563049,273.736389 
z"/>
<path fill="#F3F6FB" opacity="1.000000" stroke="none" 
	d="
M362.083435,308.347778 
	C339.642090,308.787354 317.620392,309.206909 294.376251,309.649719 
	C295.829224,308.650879 296.318481,308.047333 296.883942,307.964569 
	C315.256866,305.275970 333.636047,302.629944 352.017151,299.997406 
	C356.162689,299.403717 359.838287,299.717712 361.981293,304.232086 
	C362.621277,305.580170 364.351105,306.410889 366.039215,307.875793 
	C364.560669,308.064758 363.531860,308.196259 362.083435,308.347778 
z"/>
<path fill="#F3F6FB" opacity="1.000000" stroke="none" 
	d="
M311.128601,261.202087 
	C321.157959,260.693237 330.711578,260.212280 340.265228,259.731354 
	C340.300812,260.074463 340.336426,260.417572 340.372009,260.760712 
	C318.721466,264.757416 297.070892,268.754150 275.402557,272.754181 
	C273.761810,269.783417 272.260895,267.065826 270.440369,263.769562 
	C284.137970,262.904480 297.395447,262.067200 311.128601,261.202087 
z"/>
<path fill="#F1F5FA" opacity="1.000000" stroke="none" 
	d="
M197.876999,314.746033 
	C189.548874,315.257294 181.686386,315.732239 173.822800,316.187988 
	C173.720886,316.193909 173.604797,315.955109 173.340424,315.654144 
	C174.509872,314.986267 176.093506,314.612823 176.737808,313.626068 
	C180.426163,307.977509 186.006744,308.961639 191.398926,309.099243 
	C203.017227,309.395752 214.638275,309.608093 226.252441,310.017700 
	C227.851562,310.074066 229.417984,311.058075 230.999527,311.612640 
	C230.872833,312.008759 230.746140,312.404877 230.619446,312.801025 
	C219.860489,313.436768 209.101532,314.072540 197.876999,314.746033 
z"/>
<path fill="#FFFFFF" opacity="1.000000" stroke="none" 
	d="
M390.542664,294.591431 
	C390.378479,296.121002 389.909882,297.522156 388.901123,298.690369 
	C386.871429,296.243317 385.381927,294.029144 383.128448,290.679321 
	C382.224884,295.450226 381.594086,298.780853 380.938751,302.521973 
	C380.902527,303.206360 380.890869,303.480286 380.879181,303.754181 
	C379.493774,302.444702 378.108337,301.135223 376.904419,299.361450 
	C377.359253,298.516083 377.632599,298.135040 377.905945,297.753967 
	C378.331512,296.538391 378.735565,295.314758 379.186279,294.108551 
	C381.444702,288.064423 381.343292,287.878998 374.422852,286.789795 
	C373.672363,286.905457 373.494385,286.934601 373.317474,286.970306 
	C373.344238,285.508179 373.370972,284.046021 373.950317,282.278168 
	C374.731201,281.953766 374.959534,281.935059 375.544312,281.954529 
	C377.267181,282.319763 378.633667,282.646759 380.273102,282.983612 
	C380.614502,282.667786 380.682892,282.342133 380.800903,281.618469 
	C380.537750,278.807251 380.224976,276.394012 379.991028,273.774261 
	C379.867401,273.048248 379.665009,272.528717 379.462616,272.009216 
	C379.432465,268.508270 380.609497,267.927002 385.748169,269.827606 
	C385.885620,271.003510 385.803986,271.365173 385.440918,271.642578 
	C384.405975,271.689484 382.992981,271.832977 382.995148,271.950134 
	C383.055725,275.205719 383.259827,278.458679 383.504822,282.877686 
	C385.961029,280.286530 387.510468,278.651978 389.301392,276.911743 
	C389.998627,276.544067 390.454376,276.282104 390.910095,276.020172 
	C391.317841,277.441162 391.725616,278.862122 391.807281,280.763397 
	C391.214935,281.446960 391.050323,281.713135 390.987366,282.042145 
	C384.588867,286.238678 384.546753,286.937012 390.542664,294.591431 
z"/>
<path fill="#F3F6FB" opacity="1.000000" stroke="none" 
	d="
M192.948059,281.864227 
	C186.495316,282.471344 180.044846,283.550507 173.589340,283.581360 
	C162.254745,283.635590 150.917084,283.047913 139.580704,282.729126 
	C139.593872,281.905670 139.607040,281.082214 139.620209,280.258759 
	C157.081604,280.258759 174.542984,280.258759 192.445984,280.552063 
	C192.907745,281.184998 192.927902,281.524597 192.948059,281.864227 
z"/>
<path fill="#ECF1F9" opacity="1.000000" stroke="none" 
	d="
M388.977539,258.946716 
	C382.658905,255.888824 377.558136,256.475708 372.770203,261.559387 
	C369.534393,264.995087 366.937317,269.032410 363.753448,272.630646 
	C365.549774,265.766449 367.958435,259.148712 374.406860,255.109711 
	C379.113312,252.161819 383.701935,253.077362 389.012451,257.897400 
	C389.069763,258.467651 388.977539,258.946716 388.977539,258.946716 
z"/>
<path fill="#DEE8F4" opacity="1.000000" stroke="none" 
	d="
M166.025757,299.142700 
	C179.326492,297.549011 192.627213,295.955353 206.376862,294.623230 
	C206.854904,295.223389 206.884048,295.561981 206.913208,295.900574 
	C193.590240,297.519226 180.267258,299.137878 166.487869,300.363403 
	C166.029541,299.694427 166.027649,299.418549 166.025757,299.142700 
z"/>
<path fill="#1358B3" opacity="1.000000" stroke="none" 
	d="
M389.059875,277.017426 
	C387.510468,278.651978 385.961029,280.286530 383.504822,282.877686 
	C383.259827,278.458679 383.055725,275.205719 382.995148,271.950134 
	C382.992981,271.832977 384.405975,271.689484 385.503662,271.796997 
	C385.847839,272.035736 385.955170,272.351440 385.955170,272.351440 
	C386.309265,272.562744 386.663391,272.774017 387.298279,273.283386 
	C387.579071,273.581451 387.986847,273.691040 387.986847,273.691040 
	C387.986847,273.691040 388.402039,273.553375 388.402039,273.553375 
	C388.402039,273.553375 388.798309,273.642578 388.593872,274.091125 
	C388.612946,275.365601 388.836395,276.191528 389.059875,277.017426 
z"/>
<path fill="#044DAE" opacity="1.000000" stroke="none" 
	d="
M379.912231,273.980774 
	C380.224976,276.394012 380.537750,278.807251 380.624817,281.733154 
	C380.189911,282.446655 380.056885,282.689301 380.000122,282.973785 
	C378.633667,282.646759 377.267181,282.319763 375.463989,281.597717 
	C375.016571,280.473358 375.005859,279.744080 374.995117,279.014771 
	C374.995117,279.014771 374.993835,278.595825 375.245575,278.178619 
	C375.656616,277.148224 375.815918,276.535034 375.975220,275.921844 
	C375.975220,275.921844 375.988281,275.470154 376.332214,275.212952 
	C377.754852,274.630737 378.833557,274.305756 379.912231,273.980774 
z"/>
<path fill="#6E98D0" opacity="1.000000" stroke="none" 
	d="
M207.381653,295.950623 
	C206.884048,295.561981 206.854904,295.223389 206.782440,294.630493 
	C212.096512,294.376221 217.453888,294.376221 222.811279,294.376221 
	C222.830780,294.749420 222.850281,295.122620 222.869797,295.495819 
	C217.863235,295.664124 212.856674,295.832397 207.381653,295.950623 
z"/>
<path fill="#C1D3EB" opacity="1.000000" stroke="none" 
	d="
M165.605286,299.113495 
	C166.027649,299.418549 166.029541,299.694427 166.028549,300.384277 
	C161.874771,300.858002 157.723907,300.917725 153.253799,300.426208 
	C152.942001,299.626740 152.949417,299.378510 152.956848,299.130280 
	C157.032837,299.114960 161.108810,299.099609 165.605286,299.113495 
z"/>
<path fill="#FFFFFF" opacity="1.000000" stroke="none" 
	d="
M152.593735,299.018066 
	C152.949417,299.378510 152.942001,299.626740 152.941940,300.248047 
	C147.922287,299.412537 142.895279,298.203918 137.868271,296.995331 
	C137.985779,296.452759 138.103302,295.910187 138.220825,295.367645 
	C142.890762,296.547058 147.560684,297.726471 152.593735,299.018066 
z"/>
<path fill="#B1C7E6" opacity="1.000000" stroke="none" 
	d="
M193.392899,281.935883 
	C192.927902,281.524597 192.907745,281.184998 192.888275,280.589355 
	C196.963928,280.185577 201.038864,280.037842 205.595337,280.169617 
	C206.039825,280.628662 206.002777,280.808258 205.965729,280.987885 
	C201.923065,281.327759 197.880386,281.667664 193.392899,281.935883 
z"/>
<path fill="#195CB5" opacity="1.000000" stroke="none" 
	d="
M394.003052,291.431915 
	C393.108276,291.350037 392.175934,291.238342 390.666077,291.057495 
	C391.075104,288.740479 391.468933,286.509277 391.862793,284.278076 
	C392.592285,284.347992 393.321808,284.417908 394.051300,284.487823 
	C394.051300,286.495392 394.051300,288.502991 394.041748,290.982147 
	C394.032227,291.453735 393.965454,291.402130 394.003052,291.431915 
z"/>
<path fill="#044DAE" opacity="1.000000" stroke="none" 
	d="
M206.404816,280.992218 
	C206.002777,280.808258 206.039825,280.628662 206.062958,280.174377 
	C209.021027,279.493896 211.992996,279.088135 214.964951,278.682404 
	C215.026917,279.229523 215.088882,279.776642 215.150848,280.323761 
	C212.381882,280.548004 209.612900,280.772278 206.404816,280.992218 
z"/>
<path fill="#044DAE" opacity="1.000000" stroke="none" 
	d="
M147.801300,268.775391 
	C149.581879,268.746643 151.385361,269.044983 153.188828,269.343292 
	C153.016678,269.989960 152.844528,270.636597 152.672379,271.283264 
	C151.056320,270.556305 149.440262,269.829376 147.801300,268.775391 
z"/>
<path fill="#ECF1F9" opacity="1.000000" stroke="none" 
	d="
M381.153900,303.896545 
	C380.890869,303.480286 380.902527,303.206360 381.268372,302.569153 
	C383.495972,301.876709 385.369446,301.547607 387.242920,301.218506 
	C387.408447,301.387268 387.573944,301.556000 387.988525,301.976929 
	C388.237671,302.229156 388.184082,302.630615 388.158783,302.831543 
	C385.898529,303.367950 383.663574,303.703400 381.153900,303.896545 
z"/>
<path fill="#044DAE" opacity="1.000000" stroke="none" 
	d="
M389.161011,259.219543 
	C388.977539,258.946716 389.069763,258.467651 389.136353,258.233032 
	C390.803223,258.772369 392.403473,259.546356 394.003754,260.320343 
	C393.690308,260.866516 393.376892,261.412659 393.063477,261.958832 
	C391.823792,261.136688 390.584137,260.314545 389.161011,259.219543 
z"/>
<path fill="#ECF1F9" opacity="1.000000" stroke="none" 
	d="
M373.229309,287.366791 
	C373.494385,286.934601 373.672363,286.905457 373.983215,286.858093 
	C374.494904,289.051361 374.874817,291.269409 375.254700,293.487427 
	C374.884308,293.563629 374.513916,293.639832 374.143524,293.716003 
	C373.809387,291.731750 373.475250,289.747528 373.229309,287.366791 
z"/>
<path fill="#044DAE" opacity="1.000000" stroke="none" 
	d="
M135.272675,279.361816 
	C135.858536,280.102966 136.161560,280.664581 137.140167,282.478271 
	C134.546051,281.398010 133.041840,280.771606 131.537628,280.145233 
	C131.621155,279.824249 131.704666,279.503265 131.788193,279.182281 
	C132.855408,279.182281 133.922638,279.182281 135.272675,279.361816 
z"/>
<path fill="#044DAE" opacity="1.000000" stroke="none" 
	d="
M138.047562,291.993927 
	C136.962708,291.865387 136.229965,291.734894 135.497223,291.604401 
	C135.497101,291.289001 135.496964,290.973633 135.496841,290.658234 
	C137.114532,290.520294 138.732224,290.382355 140.349930,290.244385 
	C140.425339,290.535248 140.500763,290.826080 140.576187,291.116943 
	C139.850677,291.408600 139.125168,291.700287 138.047562,291.993927 
z"/>
<path fill="#1358B3" opacity="1.000000" stroke="none" 
	d="
M379.991028,273.774261 
	C378.833557,274.305756 377.754852,274.630737 376.336243,274.987000 
	C376.096863,274.169067 376.197388,273.319855 376.995056,272.319336 
	C378.305145,272.126068 378.918121,272.084106 379.531067,272.042175 
	C379.531067,272.042175 379.508636,272.008392 379.485626,272.008789 
	C379.665009,272.528717 379.867401,273.048248 379.991028,273.774261 
z"/>
<path fill="#044DAE" opacity="1.000000" stroke="none" 
	d="
M295.058655,236.043030 
	C294.158722,237.353333 293.258789,238.663635 292.358856,239.973938 
	C291.924591,239.593231 291.490356,239.212524 291.056091,238.831818 
	C292.134186,237.903244 293.212280,236.974670 294.648132,236.022491 
	C295.005890,235.998901 295.058655,236.043030 295.058655,236.043030 
z"/>
<path fill="#044DAE" opacity="1.000000" stroke="none" 
	d="
M170.549957,270.618591 
	C169.630829,270.856567 169.001602,270.932587 168.372360,271.008606 
	C168.209808,270.776581 168.047241,270.544525 167.884674,270.312469 
	C168.888397,269.617889 169.892120,268.923309 170.895844,268.228729 
	C170.877182,268.971375 170.858521,269.713989 170.549957,270.618591 
z"/>
<path fill="#044DAE" opacity="1.000000" stroke="none" 
	d="
M148.549530,260.570557 
	C147.601105,261.690491 146.359833,262.747559 145.118546,263.804596 
	C144.824066,263.395721 144.529587,262.986816 144.235107,262.577942 
	C145.575623,261.887878 146.916138,261.197784 148.549530,260.570557 
z"/>
<path fill="#044DAE" opacity="1.000000" stroke="none" 
	d="
M192.920380,292.828552 
	C191.319870,292.860748 190.012085,292.785645 188.704315,292.710510 
	C188.750732,292.290588 188.797150,291.870667 188.843567,291.450745 
	C190.373291,291.601501 191.903381,291.749176 193.430786,291.920471 
	C193.469162,291.924805 193.525589,292.203613 193.488678,292.329529 
	C193.446136,292.474518 193.309113,292.591858 192.920380,292.828552 
z"/>
<path fill="#044DAE" opacity="1.000000" stroke="none" 
	d="
M299.315643,231.465256 
	C299.059357,232.319214 298.559906,232.959656 298.060486,233.600082 
	C297.771057,233.285355 297.481659,232.970627 297.192230,232.655884 
	C297.819000,232.187836 298.445740,231.719772 299.315643,231.465256 
z"/>
<path fill="#F3F6FB" opacity="1.000000" stroke="none" 
	d="
M287.049652,309.195618 
	C289.340973,308.924744 291.632294,308.653839 293.923645,308.382965 
	C293.953796,308.955444 293.983978,309.527924 294.014160,310.100403 
	C291.970062,310.100403 289.925964,310.100403 287.466614,309.834717 
	C287.051361,309.569000 287.049652,309.195618 287.049652,309.195618 
z"/>
<path fill="#044DAE" opacity="1.000000" stroke="none" 
	d="
M132.310074,290.519958 
	C131.282547,290.526672 130.471313,290.312531 129.660095,290.098389 
	C129.813156,289.714081 129.966217,289.329773 130.119278,288.945435 
	C130.921646,289.396667 131.724014,289.847870 132.310074,290.519958 
z"/>
<path fill="#ECF1F9" opacity="1.000000" stroke="none" 
	d="
M374.726990,279.026215 
	C375.005859,279.744080 375.016571,280.473358 375.107574,281.559509 
	C374.959534,281.935059 374.731201,281.953766 374.159088,281.974915 
	C374.029846,280.997467 374.244354,280.017548 374.726990,279.026215 
z"/>
<path fill="#044DAE" opacity="1.000000" stroke="none" 
	d="
M318.581940,290.815308 
	C319.578766,290.858948 320.389648,291.098328 321.200531,291.337677 
	C321.097443,291.607208 320.994385,291.876740 320.891327,292.146271 
	C320.059540,291.767853 319.227753,291.389435 318.581940,290.815308 
z"/>
<path fill="#044DAE" opacity="1.000000" stroke="none" 
	d="
M309.763519,226.262589 
	C309.502380,225.736786 309.491791,225.163162 309.547546,224.596069 
	C309.550842,224.562897 310.089905,224.582413 310.379639,224.577393 
	C310.262665,225.123672 310.145691,225.669937 309.763519,226.262589 
z"/>
<path fill="#ECF1F9" opacity="1.000000" stroke="none" 
	d="
M389.301392,276.911743 
	C388.836395,276.191528 388.612946,275.365601 388.716339,274.253174 
	C389.657745,274.411591 390.272278,274.856567 390.898438,275.660828 
	C390.454376,276.282104 389.998627,276.544067 389.301392,276.911743 
z"/>
<path fill="#044DAE" opacity="1.000000" stroke="none" 
	d="
M345.731140,232.334412 
	C345.507965,231.831253 345.524780,231.461182 345.541626,231.091125 
	C346.117920,231.526886 346.694214,231.962631 347.270538,232.398392 
	C346.837402,232.421432 346.404236,232.444489 345.731140,232.334412 
z"/>
<path fill="#ECF1F9" opacity="1.000000" stroke="none" 
	d="
M377.682800,297.742188 
	C377.632599,298.135040 377.359253,298.516083 376.751648,299.031158 
	C376.096741,298.452911 375.776093,297.740692 375.965576,296.955261 
	C376.653412,296.913574 376.831085,296.945129 377.008789,296.976685 
	C377.063721,297.284943 377.213989,297.536163 377.682800,297.742188 
z"/>
<path fill="#044DAE" opacity="1.000000" stroke="none" 
	d="
M301.098755,229.585571 
	C301.383636,229.005371 301.684143,228.673111 301.984680,228.340851 
	C301.944519,228.902176 301.922913,229.466125 301.844879,230.022141 
	C301.832642,230.109528 301.543915,230.239426 301.420197,230.207123 
	C301.294342,230.174255 301.214417,229.965347 301.098755,229.585571 
z"/>
<path fill="#1358B3" opacity="1.000000" stroke="none" 
	d="
M376.976379,296.676544 
	C376.831085,296.945129 376.653412,296.913574 376.210327,296.828796 
	C375.540161,296.317078 375.135376,295.858612 374.730621,295.400177 
	C374.851593,295.250854 374.972595,295.101532 375.093597,294.952209 
	C375.710388,295.426941 376.327209,295.901672 376.976379,296.676544 
z"/>
<path fill="#044DAE" opacity="1.000000" stroke="none" 
	d="
M286.017853,246.981445 
	C285.732513,247.147705 285.303680,247.095367 285.154785,246.938843 
	C285.456726,246.201599 285.907562,245.620911 286.682922,245.019318 
	C287.007385,244.998413 287.067902,245.048798 287.067902,245.048798 
	C286.812988,245.637589 286.558075,246.226395 286.017853,246.981445 
z"/>
<path fill="#ECF1F9" opacity="1.000000" stroke="none" 
	d="
M386.377319,272.529510 
	C385.955170,272.351440 385.847839,272.035736 385.785095,271.881287 
	C385.803986,271.365173 385.885620,271.003510 386.083496,270.097809 
	C386.907196,270.362183 387.614685,271.170593 388.322144,271.978973 
	C387.814606,272.221863 387.307037,272.464722 386.377319,272.529510 
z"/>
<path fill="#C1D3EB" opacity="1.000000" stroke="none" 
	d="
M286.772858,309.125458 
	C287.049652,309.195618 287.051361,309.569000 287.022888,309.753510 
	C286.454437,309.931305 285.914459,309.924561 285.374481,309.917847 
	C285.748352,309.630341 286.122192,309.342804 286.772858,309.125458 
z"/>
<path fill="#044DAE" opacity="1.000000" stroke="none" 
	d="
M311.585876,292.899719 
	C311.007202,292.615753 310.675751,292.316101 310.344330,292.016418 
	C310.904236,292.056458 311.466736,292.078003 312.021332,292.155823 
	C312.108459,292.168030 312.238068,292.455963 312.205841,292.579224 
	C312.173004,292.704742 311.964630,292.784332 311.585876,292.899719 
z"/>
<path fill="#1358B3" opacity="1.000000" stroke="none" 
	d="
M375.667755,275.965332 
	C375.815918,276.535034 375.656616,277.148224 375.245544,277.969177 
	C375.115936,277.454224 375.238129,276.731537 375.667755,275.965332 
z"/>
<path fill="#044DAE" opacity="1.000000" stroke="none" 
	d="
M338.955566,288.608948 
	C338.712555,288.210693 338.714264,287.814423 338.744781,287.420380 
	C338.745636,287.409149 339.052765,287.421600 339.217102,287.423035 
	C339.212860,287.819122 339.208588,288.215210 338.955566,288.608948 
z"/>
<path fill="#044DAE" opacity="1.000000" stroke="none" 
	d="
M336.610107,288.778564 
	C336.468903,289.208954 336.193848,289.471680 335.900421,289.711975 
	C335.888458,289.721771 335.703613,289.520538 335.599304,289.417603 
	C335.890533,289.147369 336.181763,288.877106 336.610107,288.778564 
z"/>
<path fill="#044DAE" opacity="1.000000" stroke="none" 
	d="
M197.308319,261.080811 
	C197.276291,260.528015 197.404327,260.135986 197.532364,259.743927 
	C197.639282,259.851074 197.852829,259.981934 197.835144,260.061371 
	C197.746002,260.462128 197.596619,260.849518 197.308319,261.080811 
z"/>
<path fill="#044DAE" opacity="1.000000" stroke="none" 
	d="
M363.308533,276.082245 
	C363.276428,275.530701 363.404327,275.139496 363.532227,274.748291 
	C363.639069,274.855164 363.852356,274.985748 363.834747,275.064941 
	C363.745728,275.464844 363.596558,275.851379 363.308533,276.082245 
z"/>
<path fill="#044DAE" opacity="1.000000" stroke="none" 
	d="
M194.156219,261.864380 
	C194.237137,262.250061 194.164734,262.484680 194.092316,262.719299 
	C193.828186,262.458313 193.564056,262.197327 193.299942,261.936340 
	C193.534271,261.862030 193.768585,261.787689 194.156219,261.864380 
z"/>
<path fill="#044DAE" opacity="1.000000" stroke="none" 
	d="
M345.704407,288.112793 
	C345.787262,288.405731 345.696686,288.793365 345.484741,288.878235 
	C345.314026,288.946655 344.996796,288.649261 344.744537,288.514160 
	C344.989197,288.368347 345.233887,288.222534 345.704407,288.112793 
z"/>
<path fill="#044DAE" opacity="1.000000" stroke="none" 
	d="
M304.358765,226.891754 
	C304.636353,227.164581 304.750793,227.570282 304.808014,227.983871 
	C304.817841,228.055130 304.584381,228.160019 304.463257,228.249359 
	C304.367584,227.841980 304.271912,227.434631 304.358765,226.891754 
z"/>
<path fill="#044DAE" opacity="1.000000" stroke="none" 
	d="
M306.359283,225.892380 
	C306.636780,226.165192 306.751190,226.570770 306.808380,226.984283 
	C306.818207,227.055588 306.584808,227.160492 306.463776,227.249878 
	C306.368134,226.842514 306.272491,226.435181 306.359283,225.892380 
z"/>
<path fill="#044DAE" opacity="1.000000" stroke="none" 
	d="
M210.917145,291.308319 
	C211.469238,291.276215 211.860825,291.404236 212.252426,291.532288 
	C212.145447,291.639221 212.014709,291.852814 211.935486,291.835144 
	C211.535187,291.745972 211.148285,291.596680 210.917145,291.308319 
z"/>
<path fill="#044DAE" opacity="1.000000" stroke="none" 
	d="
M327.891296,290.641113 
	C328.164368,290.363068 328.570374,290.248352 328.984314,290.191010 
	C329.055634,290.181122 329.160675,290.414917 329.250153,290.536163 
	C328.842407,290.632080 328.434631,290.727966 327.891296,290.641113 
z"/>
<path fill="#ECF1F9" opacity="1.000000" stroke="none" 
	d="
M379.594055,271.552185 
	C378.918121,272.084106 378.305145,272.126068 377.235596,272.103333 
	C377.738312,271.713135 378.697693,271.387665 379.594055,271.552185 
z"/>
<path fill="#044DAE" opacity="1.000000" stroke="none" 
	d="
M388.405518,273.394287 
	C388.402039,273.553375 387.986847,273.691040 387.986847,273.691040 
	C387.986847,273.691040 387.579071,273.581451 387.566467,273.438110 
	C387.821411,273.045654 388.106445,273.025818 388.405518,273.394287 
z"/>
<path fill="#044DAE" opacity="1.000000" stroke="none" 
	d="
M323.740479,224.355270 
	C323.991913,224.370041 324.129059,224.504623 324.266174,224.639221 
	C324.052826,224.584518 323.839508,224.529800 323.740479,224.355270 
z"/>
<path fill="#044DAE" opacity="1.000000" stroke="none" 
	d="
M280.757050,309.988861 
	C280.590210,310.099121 280.421814,310.044983 280.253448,309.990845 
	C280.420807,309.935364 280.588165,309.879913 280.757050,309.988861 
z"/>
<path fill="#ECF1F9" opacity="1.000000" stroke="none" 
	d="
M391.075256,282.318909 
	C391.050323,281.713135 391.214935,281.446960 391.687927,281.123566 
	C391.650818,281.534180 391.406982,282.064941 391.075256,282.318909 
z"/>
<path fill="#044DAE" opacity="1.000000" stroke="none" 
	d="
M332.354675,289.259888 
	C332.369446,289.008087 332.504333,288.870728 332.639191,288.733398 
	C332.584381,288.947052 332.529602,289.160736 332.354675,289.259888 
z"/>
<path fill="#FFFFFF" opacity="1.000000" stroke="none" 
	d="
M152.117294,259.042297 
	C152.451187,258.946838 152.785080,258.851379 153.495087,258.817566 
	C153.871185,258.879242 154.098312,259.114136 154.098312,259.114136 
	C153.638565,259.371429 153.178802,259.628754 152.399506,259.691101 
	C152.079971,259.496185 152.117294,259.042297 152.117294,259.042297 
z"/>
<path fill="#044DAE" opacity="1.000000" stroke="none" 
	d="
M203.242874,291.011108 
	C203.409576,290.900848 203.577835,290.954895 203.746124,291.008972 
	C203.578888,291.064484 203.411667,291.119934 203.242874,291.011108 
z"/>
<path fill="#044DAE" opacity="1.000000" stroke="none" 
	d="
M151.853134,259.046143 
	C152.117294,259.042297 152.079971,259.496185 152.112946,259.721497 
	C151.714386,259.762634 151.282852,259.578491 150.851318,259.394348 
	C151.097214,259.279572 151.343094,259.164795 151.853134,259.046143 
z"/>
<path fill="#FFFFFF" opacity="1.000000" stroke="none" 
	d="
M153.753693,258.765717 
	C154.112839,258.337738 154.589493,258.023285 155.351837,257.632141 
	C155.777298,257.721527 155.917068,257.887604 156.263214,258.306580 
	C155.886658,258.770142 155.303757,258.980774 154.409576,259.152771 
	C154.098312,259.114136 153.871185,258.879242 153.753693,258.765717 
z"/>
<path fill="#FFFFFF" opacity="1.000000" stroke="none" 
	d="
M392.075226,294.645050 
	C391.915833,294.946930 391.683868,294.941254 391.106873,294.883484 
	C391.001556,294.309570 391.241241,293.787811 391.480896,293.266022 
	C391.654816,293.623199 391.828735,293.980347 392.075226,294.645050 
z"/>
<path fill="#044DAE" opacity="1.000000" stroke="none" 
	d="
M289.532715,241.550385 
	C289.476929,241.583801 289.588501,241.516983 289.532715,241.550385 
z"/>
<path fill="#044DAE" opacity="1.000000" stroke="none" 
	d="
M294.983276,235.973007 
	C295.080170,235.931152 295.199646,235.915192 295.188904,235.971130 
	C295.058655,236.043030 295.005890,235.998901 294.983276,235.973007 
z"/>
<path fill="#044DAE" opacity="1.000000" stroke="none" 
	d="
M199.466492,260.447388 
	C199.523361,260.412994 199.409622,260.481812 199.466492,260.447388 
z"/>
<path fill="#044DAE" opacity="1.000000" stroke="none" 
	d="
M286.981506,244.968735 
	C287.079529,244.926300 287.203369,244.913559 287.197571,244.974792 
	C287.067902,245.048798 287.007385,244.998413 286.981506,244.968735 
z"/>
<path fill="#F4F4F4" opacity="1.000000" stroke="none" 
	d="
M351.486267,335.666687 
	C351.866425,335.072784 352.022369,334.776154 352.225922,334.516846 
	C354.769470,331.276428 358.038940,329.022949 362.037476,330.943298 
	C363.801971,331.790771 365.579590,334.624207 365.635071,336.604187 
	C365.756439,340.931152 363.087311,344.003998 358.880463,345.377228 
	C352.912292,347.325470 349.691132,343.307159 351.486267,335.666687 
z"/>
<path fill="#E7E7E7" opacity="1.000000" stroke="none" 
	d="
M277.695190,346.127625 
	C276.448486,346.146149 275.638275,346.146149 274.016571,346.146149 
	C275.566071,343.024567 276.888580,340.360168 278.622009,336.868011 
	C279.492889,340.390533 280.141479,343.013916 280.828644,345.793304 
	C279.746399,345.920013 278.939026,346.014557 277.695190,346.127625 
z"/>
<path fill="#1358B3" opacity="1.000000" stroke="none" 
	d="
M387.400330,301.012543 
	C385.369446,301.547607 383.495972,301.876709 381.292908,302.158630 
	C381.594086,298.780853 382.224884,295.450226 383.128448,290.679321 
	C385.381927,294.029144 386.871429,296.243317 388.503357,298.751465 
	C388.283142,299.632507 387.920471,300.219543 387.400330,301.012543 
z"/>
<path fill="#034CAE" opacity="1.000000" stroke="none" 
	d="
M332.531952,226.549652 
	C332.476685,226.582657 332.587219,226.516647 332.531952,226.549652 
z"/>
<path fill="#0A51B0" opacity="1.000000" stroke="none" 
	d="
M261.213837,301.859375 
	C262.630737,304.475739 263.879944,306.774292 265.096619,309.013031 
	C260.570892,313.040161 257.849426,313.142395 253.157867,309.478485 
	C254.851120,306.032990 256.566284,302.542908 258.571533,298.462524 
	C259.703125,299.870544 260.374634,300.706055 261.213837,301.859375 
z"/>
<path fill="#1358B3" opacity="1.000000" stroke="none" 
	d="
M252.362091,285.914246 
	C250.653427,284.524170 248.021149,283.051025 248.198029,282.100708 
	C248.991745,277.836151 251.791641,274.846710 256.436920,272.977844 
	C256.436920,277.893921 256.436920,282.378845 256.436920,287.397552 
	C255.056793,286.903717 253.894333,286.487793 252.362091,285.914246 
z"/>
<path fill="#0C53B1" opacity="1.000000" stroke="none" 
	d="
M254.831024,295.712555 
	C253.132767,298.947479 251.533447,301.818542 249.934113,304.689575 
	C249.486252,304.712067 249.038391,304.734528 248.590530,304.757019 
	C247.545258,299.981842 246.499969,295.206665 245.454697,290.431488 
	C246.012711,290.017670 246.570724,289.603882 247.128723,289.190063 
	C249.729126,291.242950 252.329529,293.295807 254.831024,295.712555 
z"/>
<path fill="#0C53B1" opacity="1.000000" stroke="none" 
	d="
M267.094727,302.674652 
	C266.596954,301.788513 266.268738,301.209625 265.918701,300.644196 
	C261.306763,293.194031 261.774811,292.079376 271.853302,288.915833 
	C271.039001,294.478973 270.300629,299.523590 269.401123,305.668884 
	C268.069214,304.005890 267.661652,303.497040 267.094727,302.674652 
z"/>
<path fill="#0A51B0" opacity="1.000000" stroke="none" 
	d="
M264.968048,275.767395 
	C266.650421,278.040894 268.065765,280.034363 269.680298,282.308411 
	C266.888977,284.362793 264.527222,286.101013 261.442322,288.371460 
	C261.442322,283.191406 261.442322,278.729156 261.442322,273.790863 
	C262.526794,274.355469 263.613922,274.921448 264.968048,275.767395 
z"/>
<path fill="#1358B3" opacity="1.000000" stroke="none" 
	d="
M380.273102,282.983612 
	C380.056885,282.689301 380.189911,282.446655 380.575256,282.131134 
	C380.682892,282.342133 380.614502,282.667786 380.273102,282.983612 
z"/>
</svg>